Coordinates
version=1
nRows=29
nColumns=22
inDegrees=yes

Units are S.I. units (second, meters, Newtons, ...)
If the header above contains a line with 'inDegrees', this indicates whether rotational values are in degrees (yes) or radians (no).

endheader
time	pelvis_tilt	pelvis_list	pelvis_rotation	pelvis_tx	pelvis_ty	pelvis_tz	hip_flexion_r	hip_adduction_r	hip_rotation_r	knee_angle_r	ankle_angle_r	subtalar_angle_r	hip_flexion_l	hip_adduction_l	hip_rotation_l	knee_angle_l	ankle_angle_l	subtalar_angle_l	lumbar_extension	lumbar_bending	lumbar_rotation
      5.12000000	     -1.92614476	      0.01417189	    -89.61805452	      0.81509298	      0.91357397	      0.33762639	      6.32792338	     16.50995706	     -0.75516455	    -15.74751690	      7.14899044	    -15.98181763	     21.23781880	    -10.91038262	      6.01631467	    -64.56660921	     -2.62762911	      0.74408900	     -4.99944576	     -0.18024773	     -8.68075458
      5.13000000	     -2.02723326	      0.13965498	    -91.03154037	      0.81274129	      0.91385505	      0.34567308	      5.20266620	     16.77177489	      0.73033298	    -14.97230972	      7.08953297	    -15.98257308	     22.35600595	    -11.35394875	      6.33614179	    -63.48945771	     -1.15858690	     -0.44290311	     -4.93257757	     -0.13362885	     -7.83612816
      5.14000000	     -2.09861839	      0.27589648	    -92.44748296	      0.81047591	      0.91407778	      0.35359471	      4.12143281	     16.95126350	      2.24271941	    -14.26577668	      7.05568630	    -15.97415975	     23.38032303	    -11.68763149	      6.70378298	    -62.20017251	      0.13686416	     -1.59970502	     -4.86424253	     -0.08496141	     -7.00533144
      5.15000000	     -2.12948448	      0.41303363	    -93.86904370	      0.80829006	      0.91427137	      0.36140445	      3.07993962	     17.04227142	      3.81097205	    -13.63185884	      7.03249915	    -15.95694535	     24.29299359	    -11.89976710	      7.09758494	    -60.69852398	      1.20529707	     -2.59371062	     -4.80538732	     -0.04938831	     -6.17964346
      5.16000000	     -2.12467286	      0.54130306	    -95.27954252	      0.80621667	      0.91443080	      0.36918532	      2.07436513	     17.04665484	      5.34434129	    -13.07605700	      7.06588382	    -15.93398118	     25.08286330	    -11.99512255	      7.50378692	    -58.99619498	      2.12754490	     -3.42958164	     -4.75158820	     -0.02172163	     -5.37445087
      5.17000000	     -2.08141999	      0.65932941	    -96.68389908	      0.80423291	      0.91455358	      0.37693439	      1.11294699	     16.96733707	      6.84504601	    -12.60337614	      7.14601988	    -15.90289999	     25.75494229	    -11.97760062	      7.89657770	    -57.10983620	      2.89048611	     -3.99537022	     -4.70687451	     -0.00816224	     -4.58039849
      5.18000000	     -2.00633871	      0.81580677	    -98.09604107	      0.80230172	      0.91453043	      0.38463908	      0.27638812	     16.82765167	      8.29953745	    -12.26274992	      7.29412158	    -15.84805592	     26.37716288	    -11.87568900	      8.25201008	    -55.07060267	      3.50469383	     -4.15825001	     -4.60909468	      0.00481847	     -3.77558222
      5.19000000	     -1.87193806	      0.84523680	    -99.47273921	      0.80045562	      0.91467939	      0.39244043	     -0.67723208	     16.56613628	      9.67939579	    -11.92062003	      7.45405720	    -15.81629066	     26.74914200	    -11.62542921	      8.56188756	    -52.83019732	      3.96641078	     -4.20322992	     -4.63670615	     -0.05119549	     -3.03226692
      5.20000000	     -1.71114491	      0.89231792	   -100.84277284	      0.79862907	      0.91469788	      0.40022611	     -1.52292217	     16.25579682	     10.97974565	    -11.70455938	      7.68615034	    -15.77426170	     27.06788881	    -11.30744066	      8.80743806	    -50.45577591	      4.32590517	     -3.86946831	     -4.63020528	     -0.11474135	     -2.29299270
      5.21000000	     -1.52191091	      0.90893013	   -102.17665434	      0.79683547	      0.91466744	      0.40805312	     -2.33931982	     15.88580758	     12.17661363	    -11.55563006	      7.96727629	    -15.74203337	     27.28881787	    -10.90933862	      8.99709779	    -47.94420705	      4.57968188	     -3.21426368	     -4.63963281	     -0.20280405	     -1.58923168
      5.22000000	     -1.31241685	      0.90194276	   -103.45957680	      0.79506542	      0.91456306	      0.41592232	     -3.11720887	     15.47170790	     13.24844577	    -11.47387738	      8.29442494	    -15.72714293	     27.43364640	    -10.44607308	      9.13345234	    -45.30984971	      4.75227521	     -2.28369584	     -4.65745071	     -0.30804156	     -0.94095401
      5.23000000	     -1.09661352	      0.87353549	   -104.67713022	      0.79330856	      0.91437353	      0.42384239	     -3.87003389	     15.03055835	     14.18322202	    -11.43172812	      8.65939207	    -15.72593198	     27.51934786	     -9.93914633	      9.21558013	    -42.57297444	      4.85063849	     -1.17994020	     -4.68401218	     -0.41945190	     -0.34851910
      5.24000000	     -0.88384152	      0.83120943	   -105.80765294	      0.79156136	      0.91407432	      0.43178987	     -4.58118971	     14.58380776	     14.95784836	    -11.44647448	      9.05248629	    -15.73409180	     27.56734071	     -9.40451183	      9.24870395	    -39.75061289	      4.89719679	      0.08542537	     -4.72023166	     -0.52973375	      0.15583238
      5.25000000	     -0.68389166	      0.77830024	   -106.84626187	      0.78981453	      0.91365656	      0.43978291	     -5.26309473	     14.14464811	     15.57952593	    -11.49799371	      9.46149247	    -15.73943515	     27.59127800	     -8.86226826	      9.21193170	    -36.87115675	      4.90454235	      1.43395097	     -4.76405580	     -0.62883042	      0.55999056
      5.26000000	     -0.50984324	      0.71307283	   -107.78380976	      0.78807206	      0.91312587	      0.44785113	     -5.94124025	     13.72524185	     16.06444835	    -11.55437793	      9.87648433	    -15.73206031	     27.59704530	     -8.32935981	      9.08249976	    -33.96768759	      4.88878931	      2.76801471	     -4.82233311	     -0.70553488	      0.88548820
      5.27000000	     -0.36129094	      0.64558629	   -108.61987916	      0.78632130	      0.91245923	      0.45600188	     -6.60322547	     13.33575432	     16.43609814	    -11.63066527	     10.28947383	    -15.70861666	     27.60275637	     -7.81376940	      8.82384744	    -31.07096933	      4.87949880	      4.03435321	     -4.88591249	     -0.76017803	      1.11291255
      5.28000000	     -0.25222167	      0.56021724	   -109.36788777	      0.78457128	      0.91169581	      0.46426194	     -7.28127488	     12.98062286	     16.72946987	    -11.71488872	     10.70302880	    -15.66555070	     27.58960424	     -7.32349469	      8.40600599	    -28.21775365	      4.89198423	      5.12646334	     -4.97775800	     -0.78011249	      1.28182786
      5.29000000	     -0.17696911	      0.46560035	   -110.02137684	      0.78281384	      0.91082206	      0.47266584	     -7.97748333	     12.65825952	     16.97061030	    -11.79128088	     11.08144223	    -15.60586036	     27.57210328	     -6.84807223	      7.81255378	    -25.44407860	      4.97130430	      6.06868140	     -5.08478863	     -0.77380053	      1.35353858
      5.30000000	     -0.13835396	      0.36094694	   -110.60132368	      0.78105825	      0.90985228	      0.48121740	     -8.69365750	     12.36732793	     17.18008548	    -11.86693810	     11.43201694	    -15.53316067	     27.54289319	     -6.37809838	      7.07048766	    -22.78304727	      5.12207360	      6.81032633	     -5.20765007	     -0.73315425	      1.36516010
      5.31000000	     -0.11786989	      0.27943829	   -111.13073690	      0.77928497	      0.90872144	      0.48988157	     -9.36906478	     12.10569858	     17.37532113	    -11.98839007	     11.82403724	    -15.45871843	     27.55182154	     -5.90708918	      6.18470534	    -20.28844174	      5.30664529	      7.28494742	     -5.30655347	     -0.66819447	      1.33935594
      5.32000000	     -0.17628956	      0.14617020	   -111.59545055	      0.77749410	      0.90761373	      0.49871405	    -10.15663664	     11.89458726	     17.58069847	    -12.05490139	     12.08631144	    -15.38994050	     27.45811122	     -5.43966801	      5.36170012	    -17.92418518	      5.55709624	      7.72277141	     -5.48916568	     -0.54392739	      1.28376145
      5.33000000	     -0.27286327	      0.04174252	   -112.02513319	      0.77566227	      0.90637680	      0.50766542	    -10.92258087	     11.73059532	     17.80678698	    -12.14285339	     12.31262784	    -15.34352346	     27.37568405	     -4.97696412	      4.63997387	    -15.76242376	      5.82036362	      8.00925694	     -5.64930545	     -0.37176042	      1.21583994
      5.34000000	     -0.41391512	     -0.04654062	   -112.42003781	      0.77374947	      0.90504684	      0.51674592	    -11.69976434	     11.61506902	     18.05036657	    -12.22312358	     12.44868225	    -15.33063918	     27.28356022	     -4.52665939	      4.11055596	    -13.82892877	      6.10061676	      8.18467227	     -5.80504052	     -0.15728635	      1.13968915
      5.35000000	     -0.57409707	     -0.07246418	   -112.82965663	      0.77167891	      0.90355354	      0.52591379	    -12.40612529	     11.54468967	     18.37360313	    -12.36065526	     12.58718973	    -15.34325633	     27.24434706	     -4.11405777	      3.76478448	    -12.18357611	      6.31979794	      8.23716293	     -5.88888301	      0.09141468	      1.09610313
      5.36000000	     -0.75727620	     -0.05248609	   -113.23798415	      0.76941399	      0.90194142	      0.53518811	    -13.08085733	     11.51586266	     18.72093985	    -12.50908733	     12.64762153	    -15.38122251	     27.24441089	     -3.74180418	      3.64765773	    -10.86283429	      6.51970736	      8.23031493	     -5.92471562	      0.35907278	      1.08257214
      5.37000000	     -0.94017487	      0.02530475	   -113.66565654	      0.76689119	      0.90020057	      0.54458822	    -13.69528973	     11.51061145	     19.06340830	    -12.69198709	     12.65476295	    -15.42906977	     27.31586432	     -3.41195552	      3.72480508	     -9.92179765	      6.67787916	      8.19011803	     -5.87832432	      0.62411444	      1.11490348
      5.38000000	     -1.10903733	      0.17338396	   -114.11685109	      0.76406202	      0.89832731	      0.55410645	    -14.22611584	     11.52377656	     19.36394926	    -12.91962501	     12.63530662	    -15.45556740	     27.48416556	     -3.12702376	      3.99686242	     -9.38968063	      6.75694942	      8.14430294	     -5.72901143	      0.86983002	      1.21287116
      5.39000000	     -1.24010036	      0.33542650	   -114.60503838	      0.76085611	      0.89642834	      0.56373644	    -14.71946396	     11.51024552	     19.62960427	    -13.19559361	     12.56541819	    -15.46624362	     27.68776147	     -2.85735185	      4.44343876	     -9.24644227	      6.73705859	      8.08666698	     -5.52737446	      1.03689145	      1.35479556
      5.40000000	     -1.33903164	      0.53837302	   -115.11619299	      0.75732473	      0.89450248	      0.57345182	    -15.15308413	     11.48956309	     19.87102349	    -13.50516432	     12.41809970	    -15.45523661	     27.97247771	     -2.61150093	      5.07978074	     -9.50534979	      6.52902808	      7.96161047	     -5.25419994	      1.15582925	      1.51675698
